<?xml version="1.0" encoding="UTF-8" standalone="no"?>
<!-- Created with Inkscape (http://www.inkscape.org/) -->

<svg
   xmlns:dc="http://purl.org/dc/elements/1.1/"
   xmlns:cc="http://creativecommons.org/ns#"
   xmlns:rdf="http://www.w3.org/1999/02/22-rdf-syntax-ns#"
   xmlns:svg="http://www.w3.org/2000/svg"
   xmlns="http://www.w3.org/2000/svg"
   xmlns:sodipodi="http://sodipodi.sourceforge.net/DTD/sodipodi-0.dtd"
   xmlns:inkscape="http://www.inkscape.org/namespaces/inkscape"
   version="1.1"
   id="svg2"
   width="2523"
   height="782"
   viewBox="0 0 2523 782"
   sodipodi:docname="QlikBlqGR5.svg"
   inkscape:version="0.92.1 r15371">
  <metadata
     id="metadata8">
    <rdf:RDF>
      <cc:Work
         rdf:about="">
        <dc:format>image/svg+xml</dc:format>
        <dc:type
           rdf:resource="http://purl.org/dc/dcmitype/StillImage" />
        <dc:title></dc:title>
      </cc:Work>
    </rdf:RDF>
  </metadata>
  <defs
     id="defs6" />
  <sodipodi:namedview
     pagecolor="#ffffff"
     bordercolor="#666666"
     borderopacity="1"
     objecttolerance="10"
     gridtolerance="10"
     guidetolerance="10"
     inkscape:pageopacity="0"
     inkscape:pageshadow="2"
     inkscape:window-width="1336"
     inkscape:window-height="682"
     id="namedview4"
     showgrid="false"
     inkscape:zoom="0.22750694"
     inkscape:cx="1011.0177"
     inkscape:cy="219.31873"
     inkscape:window-x="94"
     inkscape:window-y="156"
     inkscape:window-maximized="0"
     inkscape:current-layer="svg2" />
  <g
     id="g4863">
    <path
       id="path4813"
       d="M 2040.1934 1.2285156 C 2031.4372 1.2316156 2022.501 1.4568337 2013.5 1.9121094 C 1985.4575 3.3305143 1964.691 6.8510246 1936 15.046875 C 1801.4103 53.49371 1698.499 165.17827 1671.127 302.5 C 1665.7288 329.58245 1664.5352 342.89115 1664.5352 376 C 1664.5352 409.10885 1665.7288 422.41755 1671.127 449.5 C 1699.3558 591.11988 1806.9104 704.16364 1947.5723 740.05078 C 1979.7271 748.25446 2005.0742 751.34849 2040 751.33789 C 2074.9311 751.32729 2100.54 748.19827 2132.4023 740.04492 C 2173.5548 729.51422 2213.2714 711.99843 2246.2109 689.85547 C 2251.0023 686.63454 2255.3574 684 2255.8887 684 C 2256.42 684 2262.6254 688.85235 2269.6777 694.7832 C 2351.3942 763.50506 2369.624 778.43307 2373.873 780.10156 C 2379.5919 782.34726 2387.1236 782.078 2392.5234 779.43555 C 2395.3828 778.03631 2401.1308 771.95751 2413.2676 757.5 C 2422.5019 746.5 2438.2577 727.72874 2448.2793 715.78516 C 2458.3009 703.84157 2467.5007 692.14157 2468.7227 689.78516 C 2471.7579 683.93192 2471.7522 675.89016 2468.709 670.5 C 2467.0946 667.64041 2451.204 653.72205 2412.9746 621.68359 C 2383.5631 597.03507 2359.3666 576.49733 2359.2031 576.04297 C 2359.0396 575.58862 2362.3723 569.20649 2366.6094 561.85938 C 2391.8908 518.02116 2407.3274 470.68209 2414.1719 416 C 2415.9315 401.94224 2415.9315 350.05776 2414.1719 336 C 2409.2776 296.8986 2400.4516 263.10916 2386.502 230.06055 C 2337.8785 114.86413 2234.0341 30.807348 2111 7.0566406 C 2091.1071 3.216478 2066.4618 1.2192133 2040.1934 1.2285156 z M 2038.7422 146.40039 C 2040.5619 146.39439 2042.3837 146.40836 2044.2051 146.44336 C 2058.776 146.72279 2073.3435 148.30023 2087 151.15625 C 2177.1466 170.00886 2247.3366 240.54161 2265.4707 330.5 C 2268.7896 346.96414 2269.4258 354.27775 2269.4258 376 C 2269.4258 397.72225 2268.7896 405.03586 2265.4707 421.5 C 2251.4026 491.28795 2205.2094 551.09762 2141.5 582.01562 C 2117.4356 593.69407 2097.0745 599.95304 2071.6074 603.49609 C 2061.0997 604.95794 2035.183 606.05148 2026.5 605.40039 C 1967.2896 600.96057 1916.5935 578.0141 1876.4199 537.46875 C 1841.9338 502.66343 1820.81 460.65477 1812.3242 410 C 1809.842 395.18341 1809.842 356.81659 1812.3242 342 C 1817.3358 312.08379 1825.9869 287.11767 1839.8125 262.67969 C 1873.5702 203.00984 1933.3976 161.10829 2001.3867 149.51367 C 2013.3515 147.47326 2026.0044 146.4399 2038.7422 146.40039 z M 2040 228.43164 C 2035.1022 228.43164 2030.2049 228.59415 2025.668 228.91797 C 2021.131 229.24178 2016.9545 229.72737 2013.5 230.375 C 2009.7255 231.08263 2006.0118 231.9195 2002.3613 232.88477 C 1998.7108 233.85003 1995.1233 234.94356 1991.5977 236.16602 C 1988.072 237.38847 1984.6089 238.73954 1981.209 240.21875 C 1977.809 241.69796 1974.4727 243.30547 1971.1992 245.04102 C 1967.9258 246.77656 1964.7165 248.63943 1961.5703 250.63086 C 1958.4242 252.62229 1955.3403 254.74139 1952.3223 256.98828 C 1949.3043 259.23517 1946.352 261.60941 1943.4629 264.11133 C 1940.5738 266.61325 1937.7495 269.24349 1934.9902 272 C 1932.417 274.57058 1929.9502 277.22062 1927.5918 279.94922 C 1925.2334 282.67782 1922.9832 285.48472 1920.8418 288.36719 C 1918.7004 291.24966 1916.6664 294.20805 1914.7441 297.24023 C 1912.8219 300.27242 1911.0113 303.3789 1909.3105 306.55664 C 1907.6097 309.73438 1906.0201 312.98359 1904.543 316.30273 C 1903.0658 319.62188 1901.7005 323.0104 1900.4492 326.4668 C 1899.1979 329.9232 1898.0603 333.44761 1897.0371 337.03711 C 1896.0139 340.62661 1895.1054 344.28155 1894.3125 348 C 1893.6692 351.01695 1893.1869 355.27165 1892.8652 360.14453 C 1892.5436 365.01741 1892.3828 370.50848 1892.3828 376 C 1892.3828 381.49152 1892.5436 386.98259 1892.8652 391.85547 C 1893.1869 396.72835 1893.6692 400.98305 1894.3125 404 C 1895.1057 407.7202 1896.0154 411.37772 1897.0391 414.96875 C 1898.0627 418.55978 1899.2013 422.08341 1900.4531 425.54102 C 1901.705 428.99862 1903.0691 432.38906 1904.5469 435.70898 C 1906.0247 439.02891 1907.615 442.27903 1909.3164 445.45703 C 1911.0178 448.63503 1912.8311 451.74161 1914.7539 454.77344 C 1916.6767 457.80526 1918.7097 460.76313 1920.8516 463.64453 C 1922.9934 466.52593 1925.2429 469.32992 1927.6016 472.05664 C 1929.9602 474.78336 1932.4268 477.43221 1935 480 C 1937.9622 482.95598 1940.9653 485.7512 1944.0176 488.39062 C 1947.0699 491.03006 1950.1715 493.51359 1953.332 495.8457 C 1956.4926 498.17782 1959.713 500.35852 1963 502.39258 C 1966.287 504.42664 1969.6406 506.31333 1973.0723 508.05859 C 1976.5039 509.80386 1980.0129 511.40732 1983.6074 512.87305 C 1987.202 514.33877 1990.8826 515.66784 1994.6582 516.86328 C 1998.4338 518.05872 2002.3044 519.12028 2006.2793 520.05469 C 2010.2542 520.9891 2014.3331 521.79588 2018.5254 522.47852 C 2021.6961 522.9948 2025.6393 523.33758 2029.9766 523.51562 C 2034.3138 523.69371 2039.0466 523.70663 2043.7969 523.56836 C 2048.5471 523.43012 2053.315 523.13963 2057.7246 522.70703 C 2062.1342 522.27443 2066.1847 521.70112 2069.5 520.99609 C 2073.1748 520.21463 2076.791 519.31246 2080.3438 518.29297 C 2083.8965 517.27347 2087.3853 516.13681 2090.8086 514.88672 C 2094.2319 513.63663 2097.5887 512.27208 2100.875 510.79883 C 2104.1613 509.32558 2107.3776 507.74366 2110.5195 506.05469 C 2113.6614 504.36571 2116.7285 502.56912 2119.7188 500.67188 C 2122.7087 498.77461 2125.6205 496.77586 2128.4512 494.67773 C 2131.2818 492.57961 2134.0315 490.38334 2136.6953 488.0918 C 2139.3591 485.80025 2141.9382 483.41308 2144.4277 480.93555 C 2146.9172 478.45802 2149.3173 475.89046 2151.625 473.23438 C 2153.9327 470.57828 2156.1472 467.83306 2158.2656 465.00586 C 2160.3841 462.17866 2162.4064 459.26823 2164.3281 456.27734 C 2166.2499 453.28646 2168.0715 450.21549 2169.7891 447.06836 C 2171.5066 443.92123 2173.121 440.69829 2174.627 437.40234 C 2176.1329 434.1064 2177.5296 430.7381 2178.8164 427.30078 C 2180.1032 423.86346 2181.2797 420.35642 2182.3398 416.78516 C 2183.4 413.21389 2184.3438 409.57863 2185.1699 405.88086 C 2185.6705 403.64028 2186.0667 401.70493 2186.377 399.79883 C 2186.6872 397.89273 2186.9122 396.01525 2187.0742 393.89258 C 2187.3982 389.64723 2187.4677 384.41795 2187.4512 376 C 2187.4352 367.85597 2187.3336 362.5606 2187.0059 358.23828 C 2186.6781 353.91597 2186.1233 350.56761 2185.1992 346.3125 C 2184.3875 342.57476 2183.4478 338.89435 2182.3828 335.27734 C 2181.3178 331.66033 2180.1272 328.1062 2178.8184 324.61914 C 2177.5095 321.13208 2176.0823 317.71117 2174.5391 314.36328 C 2172.9958 311.01539 2171.3366 307.74051 2169.5684 304.54102 C 2167.8002 301.34152 2165.9232 298.21766 2163.9395 295.17578 C 2161.9557 292.1339 2159.8656 289.17387 2157.6758 286.29883 C 2155.486 283.42378 2153.197 280.63453 2150.8105 277.93555 C 2148.4241 275.23656 2145.9408 272.62699 2143.3672 270.11328 C 2140.7936 267.59957 2138.1283 265.18054 2135.377 262.86133 C 2132.6256 260.54212 2129.7888 258.32252 2126.8691 256.20703 C 2123.9495 254.09154 2120.9477 252.08028 2117.8691 250.17773 C 2114.7906 248.27519 2111.6345 246.48312 2108.4062 244.80273 C 2105.1784 243.12235 2101.8777 241.55447 2098.5098 240.10547 C 2095.1418 238.65647 2091.7075 237.32559 2088.209 236.11719 C 2084.7105 234.90879 2081.1489 233.82185 2077.5293 232.86328 C 2073.9097 231.90471 2070.2313 231.07453 2066.5 230.375 C 2063.0455 229.72737 2058.869 229.24178 2054.332 228.91797 C 2049.7951 228.59415 2044.8978 228.43164 2040 228.43164 z "
       style="opacity:1;fill:#60a629;fill-opacity:1" />
    <path
       inkscape:connector-curvature="0"
       id="path4820"
       d="m 2040,228.43164 c -4.8978,0 -9.7951,0.16251 -14.332,0.48633 -4.537,0.32381 -8.7135,0.8094 -12.168,1.45703 -3.7745,0.70763 -7.4882,1.5445 -11.1387,2.50977 -3.6505,0.96526 -7.238,2.05879 -10.7636,3.28125 -3.5257,1.22245 -6.9888,2.57352 -10.3887,4.05273 -3.4,1.47921 -6.7363,3.08672 -10.0098,4.82227 -3.2734,1.73554 -6.4827,3.59841 -9.6289,5.58984 -3.1461,1.99143 -6.23,4.11053 -9.248,6.35742 -3.018,2.24689 -5.9703,4.62113 -8.8594,7.12305 -2.8891,2.50192 -5.7134,5.13216 -8.4727,7.88867 -2.5732,2.57058 -5.04,5.22062 -7.3984,7.94922 -2.3584,2.7286 -4.6086,5.5355 -6.75,8.41797 -2.1414,2.88247 -4.1754,5.84086 -6.0977,8.87304 -1.9222,3.03219 -3.7328,6.13867 -5.4336,9.31641 -1.7008,3.17774 -3.2904,6.42695 -4.7675,9.74609 -1.4772,3.31915 -2.8425,6.70767 -4.0938,10.16407 -1.2513,3.4564 -2.3889,6.98081 -3.4121,10.57031 -1.0232,3.5895 -1.9317,7.24444 -2.7246,10.96289 -0.6433,3.01695 -1.1256,7.27165 -1.4473,12.14453 -0.3216,4.87288 -0.4824,10.36395 -0.4824,15.85547 0,5.49152 0.1608,10.98259 0.4824,15.85547 0.3217,4.87288 0.804,9.12758 1.4473,12.14453 0.7932,3.7202 1.7029,7.37772 2.7266,10.96875 1.0236,3.59103 2.1622,7.11466 3.414,10.57227 1.2519,3.4576 2.616,6.84804 4.0938,10.16796 1.4778,3.31993 3.0681,6.57005 4.7695,9.74805 1.7014,3.178 3.5147,6.28458 5.4375,9.31641 1.9228,3.03182 3.9558,5.98969 6.0977,8.87109 2.1418,2.8814 4.3913,5.68539 6.75,8.41211 2.3586,2.72672 4.8252,5.37557 7.3984,7.94336 2.9622,2.95598 5.9653,5.7512 9.0176,8.39062 3.0523,2.63944 6.1539,5.12297 9.3144,7.45508 3.1606,2.33212 6.381,4.51282 9.668,6.54688 3.287,2.03406 6.6406,3.92075 10.0723,5.66601 3.4316,1.74527 6.9406,3.34873 10.5351,4.81446 3.5946,1.46572 7.2752,2.79479 11.0508,3.99023 3.7756,1.19544 7.6462,2.257 11.6211,3.19141 3.9749,0.93441 8.0538,1.74119 12.2461,2.42383 3.1707,0.51628 7.1139,0.85906 11.4512,1.0371 4.3372,0.17808 9.07,0.19101 13.8203,0.0527 4.7502,-0.13824 9.5181,-0.42873 13.9277,-0.86133 4.4096,-0.4326 8.4601,-1.00591 11.7754,-1.71094 3.6748,-0.78146 7.291,-1.68363 10.8438,-2.70312 3.5527,-1.0195 7.0415,-2.15616 10.4648,-3.40625 3.4233,-1.25009 6.7801,-2.61464 10.0664,-4.08789 3.2863,-1.47325 6.5026,-3.05517 9.6445,-4.74414 3.1419,-1.68898 6.2091,-3.48556 9.1993,-5.38281 2.9899,-1.89727 5.9017,-3.89602 8.7324,-5.99415 2.8306,-2.09812 5.5803,-4.29439 8.2441,-6.58593 2.6638,-2.29155 5.2429,-4.67872 7.7324,-7.15625 2.4895,-2.47753 4.8896,-5.04509 7.1973,-7.70117 2.3077,-2.6561 4.5222,-5.40132 6.6406,-8.22852 2.1185,-2.8272 4.1408,-5.73763 6.0625,-8.72852 1.9218,-2.99088 3.7434,-6.06185 5.461,-9.20898 1.7175,-3.14713 3.3319,-6.37007 4.8379,-9.66602 1.5059,-3.29594 2.9026,-6.66424 4.1894,-10.10156 1.2868,-3.43732 2.4633,-6.94436 3.5234,-10.51562 1.0602,-3.57127 2.004,-7.20653 2.8301,-10.9043 0.5006,-2.24058 0.8968,-4.17593 1.2071,-6.08203 0.3102,-1.9061 0.5352,-3.78358 0.6972,-5.90625 0.324,-4.24535 0.3935,-9.47463 0.377,-17.89258 -0.016,-8.14403 -0.1176,-13.4394 -0.4453,-17.76172 -0.3278,-4.32231 -0.8826,-7.67067 -1.8067,-11.92578 -0.8117,-3.73774 -1.7514,-7.41815 -2.8164,-11.03516 -1.065,-3.61701 -2.2556,-7.17114 -3.5644,-10.6582 -1.3089,-3.48706 -2.7361,-6.90797 -4.2793,-10.25586 -1.5433,-3.34789 -3.2025,-6.62277 -4.9707,-9.82226 -1.7682,-3.1995 -3.6452,-6.32336 -5.6289,-9.36524 -1.9838,-3.04188 -4.0739,-6.00191 -6.2637,-8.87695 -2.1898,-2.87505 -4.4788,-5.6643 -6.8653,-8.36328 -2.3864,-2.69899 -4.8697,-5.30856 -7.4433,-7.82227 -2.5736,-2.51371 -5.2389,-4.93274 -7.9902,-7.25195 -2.7514,-2.31921 -5.5882,-4.53881 -8.5079,-6.6543 -2.9196,-2.11549 -5.9214,-4.12675 -9,-6.0293 -3.0785,-1.90254 -6.2347,-3.69461 -9.4629,-5.375 -3.2278,-1.68038 -6.5285,-3.24826 -9.8964,-4.69726 -3.368,-1.449 -6.8023,-2.77988 -10.3008,-3.98828 -3.4985,-1.2084 -7.0601,-2.29534 -10.6797,-3.25391 -3.6196,-0.95857 -7.298,-1.78875 -11.0293,-2.48828 -3.4545,-0.64763 -7.631,-1.13322 -12.168,-1.45703 -4.5369,-0.32382 -9.4342,-0.48633 -14.332,-0.48633 z"
       style="opacity:1;fill:#ffffff;fill-opacity:1" />
    <path
       id="path4525"
       d="M 2484.2344 99.216797 L 2473.5 99.5 L 2473.2285 120.47461 C 2473.0795 132.0104 2473.1905 142.05463 2473.4746 142.79492 C 2473.7586 143.5352 2475.0062 143.99638 2476.2461 143.82031 C 2478.363 143.51971 2478.5305 142.92025 2479 134 L 2479.5 124.5 L 2483.1484 124.19531 C 2486.7809 123.89236 2486.8273 123.93753 2492.709 133.69531 C 2498.0158 142.49919 2498.9439 143.53112 2501.8086 143.8125 C 2506.2114 144.24495 2505.9727 142.53833 2500.4121 133.86328 C 2494.3485 124.40335 2494.3458 124.38994 2497.9023 122.55078 C 2505.9735 118.37723 2506.0128 104.64316 2497.9668 100.48242 C 2495.6826 99.301237 2492.4116 99.000705 2484.2344 99.216797 z M 2484 104.17383 C 2486.4626 103.99528 2488.6664 104.13522 2490.5449 104.54492 C 2491.4842 104.74977 2492.3405 105.02231 2493.1094 105.35547 C 2493.8783 105.68863 2494.5583 106.08228 2495.1406 106.53125 C 2495.723 106.98022 2496.2083 107.48484 2496.5879 108.03711 C 2496.9675 108.58938 2497.2418 109.19091 2497.4023 109.83398 C 2497.5629 110.47706 2497.6098 111.16143 2497.5352 111.88281 C 2497.4605 112.60419 2497.2636 113.36126 2496.9375 114.14844 C 2496.5292 115.13421 2495.9647 115.91615 2495.1836 116.53906 C 2494.4024 117.16198 2493.4052 117.62565 2492.1348 117.97852 C 2490.8094 118.34666 2489.3902 118.61283 2487.998 118.77734 C 2486.6059 118.94186 2485.2411 119.00536 2484.0215 118.97266 C 2482.8019 118.93995 2481.7276 118.80944 2480.9199 118.58594 C 2480.1122 118.36243 2479.5706 118.04656 2479.4141 117.63867 C 2479.1265 116.88958 2479.0281 113.62708 2479.1953 110.38867 L 2479.5 104.5 L 2484 104.17383 z "
       style="fill:#aaaead;fill-opacity:1;opacity:0.97;stroke:#aaaead;stroke-opacity:1" />
    <path
       inkscape:connector-curvature="0"
       id="path4505"
       d="m 2486.403,86.559249 a 35.645641,34.965752 0 0 0 -35.6445,34.966791 35.645641,34.965752 0 0 0 35.6445,34.96485 35.645641,34.965752 0 0 0 35.6465,-34.96485 35.645641,34.965752 0 0 0 -35.6465,-34.966791 z m 0.293,3.888671 a 32.160397,31.546984 0 0 1 32.1601,31.54687 32.160397,31.546984 0 0 1 -32.1601,31.54688 32.160397,31.546984 0 0 1 -32.1621,-31.54688 32.160397,31.546984 0 0 1 32.1621,-31.54687 z"
       style="fill:#aaaead;fill-opacity:1;fill-rule:nonzero;stroke:#aaaead;stroke-width:2;stroke-linecap:square;stroke-linejoin:miter;stroke-miterlimit:4;stroke-dasharray:none;stroke-dashoffset:0;stroke-opacity:1;paint-order:markers stroke fill;opacity:0.97" />
    <g
       style="fill:#ffffff;fill-opacity:1"
       id="g4851">
      <path
         inkscape:connector-curvature="0"
         id="path4533"
         d="m 900.5,668.34683 c -8.82808,-2.10618 -13.39631,-5.2631 -16.54385,-11.43278 C 882.03411,653.14653 882,649.62622 882,455.00772 c 0,-219.71656 -0.5718,-201.74177 6.65348,-209.15706 2.05719,-2.11129 5.30293,-4.13379 7.70118,-4.79879 2.92486,-0.81103 17.83594,-1.06148 50.64534,-0.85066 l 46.5,0.29879 4.72342,2.77658 c 2.91558,1.71389 5.69038,4.42664 7.24998,7.08786 l 2.5266,4.31128 -0.022,198.91214 c -0.021,191.47912 -0.091,199.06161 -1.8739,202.91214 -2.1381,4.61825 -6.30054,8.80773 -10.6041,10.67313 -2.29367,0.9942 -13.59499,1.34162 -48,1.47561 -24.75,0.0964 -45.9,-0.0395 -47,-0.30191 z"
         style="fill:#ffffff;fill-opacity:1;opacity:0.97" />
      <path
         inkscape:connector-curvature="0"
         id="path4531"
         d="m 684.5,667.53112 c -0.55,-0.20203 -2.69712,-0.65138 -4.77138,-0.99855 -4.49798,-0.75283 -10.48382,-5.70242 -12.37758,-10.23483 -1.12354,-2.68903 -1.3501,-49.08193 -1.34546,-275.51562 0.004,-175.12068 0.35601,-273.54354 0.98763,-275.8171 1.22967,-4.42628 7.52303,-10.679094 12.05714,-11.97946 5.0261,-1.441468 95.14797,-1.306032 100.00875,0.150294 2.12788,0.637529 5.68857,3.06919 8.11602,5.542592 L 791.5,103.08519 v 276.36459 276.3646 l -3.10602,3.84281 c -6.611,8.17921 -4.0773,7.81789 -56.39398,8.04204 -25.575,0.10957 -46.95,0.0339 -47.5,-0.16811 z"
         style="fill:#ffffff;fill-opacity:1;opacity:0.97" />
      <path
         inkscape:connector-curvature="0"
         id="path4529"
         d="m 1108.6919,667.26333 c -5.1662,-1.38895 -10.8351,-6.07871 -12.636,-10.45363 -0.7639,-1.85569 -1.002,-82.76852 -0.817,-277.69659 l 0.2611,-275.07788 2.8166,-3.6927 c 5.7791,-7.576698 2.3481,-7.151538 57.7125,-7.151538 h 49.617 l 4.1526,2.74811 c 8.452,5.593248 7.6392,-8.55463 8.2013,142.751848 0.4706,126.6754 0.6043,134.74799 2.2731,137.29447 2.1224,3.23872 3.9525,3.39317 7.794,0.65777 1.5817,-1.12628 28.7821,-29.44902 60.4453,-62.93941 36.898,-39.02723 59.2604,-61.92315 62.2785,-63.7644 11.7552,-7.17132 6.7553,-6.72075 77.7091,-7.00279 50.3653,-0.20019 64.5326,0.0178 66.5,1.023 1.8451,0.94275 2.5792,2.21786 2.8022,4.86739 0.2947,3.50071 -0.9721,4.90555 -50.9246,56.47701 -28.1747,29.08785 -56.4581,58.29629 -62.852,64.90764 -15.6287,16.1604 -19.3325,24.29056 -15.7853,34.64986 0.8154,2.38122 34.7323,59.2295 75.3708,126.3295 68.4395,113.00318 73.9126,122.36889 74.2168,127.00224 0.2855,4.34789 -0.019,5.32896 -2.3301,7.5 l -2.6586,2.49776 h -59.1696 c -68.7092,0 -66.4875,0.26636 -76.7083,-9.19635 -5.108,-4.72911 -11.4295,-14.83094 -55.5816,-88.81982 -27.3999,-45.91611 -50.1829,-83.48383 -50.6288,-83.48383 -0.9768,0 -19.2358,16.67912 -33.389,30.5 -8.9849,8.77388 -10.7691,11.10351 -14.5512,19 l -4.3107,9 -0.5,55 c -0.4435,48.7797 -0.6878,55.33929 -2.1607,58 -2.9692,5.3636 -7.0611,8.40418 -12.766,9.4861 -8.2206,1.55899 -88.3503,1.20771 -94.3814,-0.41376 z"
         style="opacity:1;fill:#ffffff;fill-opacity:1" />
      <path
         inkscape:connector-curvature="0"
         id="path4527"
         d="m 897.35819,186.04607 c -5.82111,-1.38814 -10.13652,-4.89366 -12.84886,-10.43746 l -2.58712,-5.28789 0.2889,-33.56906 0.28889,-33.56906 3.05797,-3.8413 c 1.68188,-2.112715 5.03973,-4.8538 7.46189,-6.0913 4.38045,-2.238009 4.64927,-2.249883 50.44203,-2.228038 42.6205,0.02033 46.33505,0.159008 50.03811,1.868081 4.84098,2.234255 7.8876,5.400024 9.9523,10.341487 1.2883,3.08331 1.5477,9.10452 1.5477,35.92063 0,30.35814 -0.1174,32.45888 -2.0352,36.42049 -2.4119,4.98229 -7.73882,8.93099 -13.9648,10.35164 -5.18914,1.18407 -86.73271,1.29242 -91.64181,0.12178 z"
         style="fill:#ffffff;fill-opacity:1;opacity:0.97" />
      <path
         sodipodi:nodetypes="ssssssscccsscccccsssssscscsssssssssssscsss"
         inkscape:connector-curvature="0"
         id="path4773"
         d="m 525.09128,689.05237 c -2.681,-1.32117 -36.28512,-29.92292 -72.79438,-61.95808 -3.361,-2.94912 -6.92188,-5.36203 -7.91306,-5.36203 -0.99119,0 -5.91484,2.45412 -10.94145,5.45361 -65.61053,39.1512 -144.08843,50.27138 -219.03459,31.03682 C 175.11124,648.13743 138.04867,629.25054 104.25625,602.09006 62.18792,568.27789 27.90584,516.72899 11.57764,462.73229 c -3.8223,-12.6402 -8.1787,-32.864 -9.2626,-43 -0.3822,-3.575 -1.1928,-6.8212 -1.8011,-7.2137 -1.5355,-0.9907 -1.5574,-63.5623 -0.023,-64.5729 0.5959,-0.3924 1.6309,-4.76342 2.3001,-9.71342 3.9541,-29.2511 15.4491,-64.4426 29.88513,-91.4917 6.61793,-12.4002 22.30838,-36.04729 31.85477,-48.00829 9.39491,-11.7712 28.83297,-31.0375 41.37646,-41.0106 40.96052,-32.5673 87.86649,-53.1822 139.10682,-61.136603 19.31138,-2.9979 61.76776,-3.2762 80.39318,-0.5271 45.20583,6.672303 83.68998,21.281603 120.21574,45.636103 23.20954,15.4756 38.87995,28.8449 54.96478,46.8935 41.32652,46.37199 66.09135,102.66439 72.36543,164.49231 1.57428,15.5137 0.71976,54.4651 -1.50611,68.6524 -6.42226,40.9343 -20.71972,79.5838 -41.16571,111.2811 -2.40577,3.7297 -4.37413,7.3919 -4.37413,8.1382 0,0.7464 15.87145,15.1213 35.26989,31.94428 19.39843,16.823 36.04843,31.90526 37,33.51613 2.98312,5.05003 2.27657,11.12465 -2.01989,17.36611 -6.88118,9.99627 -54.38734,63.59144 -57.80375,65.21263 -4.16943,1.97853 -9.0708,1.92739 -13.26277,-0.13837 z M 315.83849,544.61549 c 20.21962,-3.3805 46.81043,-13.9149 63.56931,-25.1842 15.29641,-10.2858 33.01283,-27.5245 44.07006,-42.8816 10.69751,-14.8576 20.81963,-37.3759 25.95488,-57.741 7.55621,-29.9659 4.98614,-68.599 -6.48451,-97.47462 -3.51122,-8.839 -11.06179,-24.1077 -14.83724,-30.0037 -10.3588,-16.177 -31.84131,-38.2151 -47.38952,-48.6151 -31.97437,-21.38729 -70.55392,-31.52679 -107.13525,-28.15729 -29.82293,2.747 -55.83204,11.7978 -80.10498,27.87539 -13.46956,8.9218 -35.67244,31.0153 -44.47585,44.2567 -36.95424,55.5837 -38.5636,124.56542 -4.22999,181.30882 10.17333,16.8136 28.55846,36.2894 46.08145,48.8152 4.43978,3.1737 13.35502,8.4606 19.81164,11.7487 33.53844,17.0799 67.77243,22.3052 105.17,16.0527 z"
         style="fill:#ffffff;fill-opacity:1" />
    </g>
  </g>
</svg>
